<?xml version="1.0" encoding="utf-8"?>
<!-- Generator: Adobe Illustrator 26.3.1, SVG Export Plug-In . SVG Version: 6.00 Build 0)  -->
<svg version="1.2" baseProfile="tiny" id="g-shapes_parking_og-Artboard_1-interactives-img" xmlns="http://www.w3.org/2000/svg" xmlns:xlink="http://www.w3.org/1999/xlink"
	 x="0px" y="0px" viewBox="0 0 841.68 595.199" overflow="visible" xml:space="preserve">
<g>
	<g id="day_x5F_lots_00000010291253631713878850000017762902333066331579_">
		
			<path id="day_x5F_parking_00000111184133446273921920000002501969218211975313_" vector-effect="none" fill-rule="evenodd" fill="#6500A2" stroke="#232323" stroke-width="0.7368" stroke-linecap="square" stroke-linejoin="bevel" stroke-miterlimit="10" d="
			M446.961,404.774l2.349,34.223l144.357-11.906l-12.52-34.22l-53.771,4.458l1.032,10.653l-5.293,0.571l-2.219-11.224
			L446.961,404.774"/>
		
			<path id="day_x5F_parking_00000137125402220805841110000013863140890320885168_" vector-effect="none" fill-rule="evenodd" fill="#6500A2" stroke="#232323" stroke-width="0.7368" stroke-linecap="square" stroke-linejoin="bevel" stroke-miterlimit="10" d="
			M615.72,407.521l51.268-103.985l-5.315-30.664l-13.533,4.876l-9.444-9.773l-23.548,7.995l6.481,9.775l-14.739,5.775l7.073,17.794
			l12.959-0.463l-40.658,96.012l25.347,16.431L615.72,407.521"/>
	</g>
	<g id="annual_x5F_lots_00000155110953027329094240000005165156013778979752_">
		
			<path id="annual_x5F_parking_00000147939404223493223540000011554813192882046858_" vector-effect="none" fill-rule="evenodd" fill="#6500A2" stroke="#232323" stroke-width="0.7368" stroke-linecap="square" stroke-linejoin="bevel" stroke-miterlimit="10" d="
			M606.298,330.488L437.8,369.608l5.293,10.214l-9.422,2.217l-5.293-9.773l-202.082,47.993l4.723,10.214l197.36-31.982l4.722,8.875
			l71.279-15.553l-4.724-11.992l6.481-1.341l5.315,9.775l70.708-15.111l-5.91-11.995l27.106-4.876L606.298,330.488"/>
		
			<path id="annual_x5F_parking_00000062913263166880442890000009683978269596635827_" vector-effect="none" fill-rule="evenodd" fill="#6500A2" stroke="#232323" stroke-width="0.7368" stroke-linecap="square" stroke-linejoin="bevel" stroke-miterlimit="10" d="
			M61.335,388.081l10.587,25.786l120.195-28.006l35.936,13.333l8.852,7.117l36.529-8.455l-4.129-11.995l24.733-7.556l13.552,16.892
			l121.381-27.545l-4.129-9.797l10.61-2.217l4.108,9.773l173.812-42.217l-27.106-63.107l-89.553,23.109l-215.636,47.993
			l-63.633,16.453l2.965,10.675l-81.316,21.328l-5.887-8.455L61.335,388.081"/>
		
			<path id="annual_x5F_parking_00000135670324795833569610000017983242949134797712_" vector-effect="none" fill-rule="evenodd" fill="#6500A2" stroke="#232323" stroke-width="0.7368" stroke-linecap="square" stroke-linejoin="bevel" stroke-miterlimit="10" d="
			M825.271,148.064l-7.227-15.222h-8.237l-2.351-8.874l-75.427,19.088l2.371,9.797l-21.81,6.655l-8.237-11.114l-83.074,21.79
			l4.129,8.874l-5.315,0.9l-4.7-7.995l-91.926,20.889l4.129,7.095l-4.722,0.9l-4.7-6.238l-89.553,20.889l4.129,13.333
			l-123.732,27.127l-4.722-12.455l-34.53,13.422l-23.569-30.884l-86.324,17.55l7.666,36.001l-60.976,13.115l-6.194-9.996
			l-76.593,16.87l17.99,43.559l77.758-17.331l-5.601-17.552l57.154-12.674l9.731,14.233l129.904-29.345l-2.066-10.435l7.666-0.218
			l3.23,7.335l57.439-14.012l-0.286-5.096l37.407-7.337l2.944,3.34l12.674-2.68l-3.822-9.554l12.059-2.659l2.966,8.434
			l90.433-20.669l-2.373-9.094l30.64-8.896l5.603,10.653l63.92-15.09l-1.759-9.555l4.7,0.22l2.944,7.336l90.74-21.131l-2.351-9.313
			l10.61-2.899l4.108,9.116l84.852-20.23l-2.066-8.874L825.271,148.064"/>
	</g>
</g>
<style>
#g-shapes_parking_og-Artboard_1-interactives-img rect, #g-shapes_parking_og-Artboard_1-interactives-img circle, #g-shapes_parking_og-Artboard_1-interactives-img path, #g-shapes_parking_og-Artboard_1-interactives-img line, #g-shapes_parking_og-Artboard_1-interactives-img polyline, #g-shapes_parking_og-Artboard_1-interactives-img polygon { vector-effect: non-scaling-stroke; }
</style>
</svg>

